<?xml version="1.0" encoding="UTF-8"?>
<svg id="Layer_2" data-name="Layer 2" xmlns="http://www.w3.org/2000/svg" viewBox="0 0 486.43 535.53">
  <defs>
    <style>
      .cls-1 {
        fill: #fff;
      }
    </style>
  </defs>
  <path class="cls-1" d="M433.09,1.53l-114.09,278s-16-22-44-31c0,0,139-59,41-201,0,0-22.57-34.81-72.79-42.91C193-3.47,0,1.53,0,1.53l221,534h42.61L486.43,1.53h-53.34ZM239.5,462.7L71.61,49.53h155.39c40,0,47,15,47,15,87,106-45,153-45,153h-67l27,53c93,0,107,64,107,64l-56.5,128.17Z"/>
</svg>