<?xml version="1.0" encoding="UTF-8"?>
<svg xmlns="http://www.w3.org/2000/svg" viewBox="0 0 595.44 843.33">
  <defs>
    <style>
      .cls-1 {
        fill: #fff;
      }

      .cls-2 {
        stroke: #231f20;
        stroke-miterlimit: 10;
      }
    </style>
  </defs>
  <g id="Layer_2" data-name="Layer 2">
    <rect class="cls-1" width="595.28" height="841.89"/>
  </g>
  <g id="Layer_1" data-name="Layer 1">
    <g>
      <polygon class="cls-2" points="40.89 22.8 40.89 67.19 79.33 89.38 117.78 67.19 117.78 22.8 79.33 .6 40.89 22.8"/>
      <polygon class="cls-2" points="81.26 92.05 81.26 136.44 119.7 158.63 158.14 136.44 158.14 92.05 119.7 69.85 81.26 92.05"/>
      <polygon class="cls-2" points="122.64 161.18 122.64 205.57 161.08 227.77 199.53 205.57 199.53 161.18 161.08 138.99 122.64 161.18"/>
      <polygon class="cls-2" points=".52 92.05 .52 136.44 38.97 158.63 77.41 136.44 77.41 92.05 38.97 69.85 .52 92.05"/>
      <polygon class="cls-2" points=".52 92.05 .52 136.44 38.97 158.63 77.41 136.44 77.41 92.05 38.97 69.85 .52 92.05"/>
    </g>
  </g>
</svg>