<?xml version="1.0" encoding="UTF-8"?>
<svg xmlns="http://www.w3.org/2000/svg" xmlns:xlink="http://www.w3.org/1999/xlink" viewBox="0 0 596.78 842.44">
  <defs>
    <style>
      .cls-1 {
        fill: #111;
      }

      .cls-2 {
        fill: url(#New_Gradient_Swatch-37);
        stroke: url(#New_Gradient_Swatch-38);
      }

      .cls-2, .cls-3, .cls-4, .cls-5, .cls-6, .cls-7, .cls-8, .cls-9, .cls-10, .cls-11, .cls-12, .cls-13, .cls-14, .cls-15, .cls-16, .cls-17, .cls-18, .cls-19, .cls-20, .cls-21, .cls-22, .cls-23, .cls-24, .cls-25, .cls-26, .cls-27, .cls-28, .cls-29, .cls-30, .cls-31, .cls-32, .cls-33, .cls-34, .cls-35, .cls-36 {
        stroke-miterlimit: 10;
      }

      .cls-3 {
        fill: url(#New_Gradient_Swatch-39);
        stroke: url(#New_Gradient_Swatch-40);
      }

      .cls-4 {
        fill: url(#New_Gradient_Swatch-19);
        stroke: url(#New_Gradient_Swatch-20);
      }

      .cls-5 {
        fill: url(#New_Gradient_Swatch-3);
        stroke: url(#New_Gradient_Swatch-4);
      }

      .cls-6 {
        fill: url(#New_Gradient_Swatch-53);
        stroke: url(#New_Gradient_Swatch-54);
      }

      .cls-7 {
        fill: url(#New_Gradient_Swatch-13);
        stroke: url(#New_Gradient_Swatch-14);
      }

      .cls-8 {
        fill: url(#New_Gradient_Swatch-5);
        stroke: url(#New_Gradient_Swatch-6);
      }

      .cls-9 {
        fill: url(#New_Gradient_Swatch-29);
        stroke: url(#New_Gradient_Swatch-30);
      }

      .cls-10 {
        fill: url(#New_Gradient_Swatch-45);
        stroke: url(#New_Gradient_Swatch-46);
      }

      .cls-11 {
        fill: url(#New_Gradient_Swatch-57);
        stroke: url(#New_Gradient_Swatch-58);
      }

      .cls-12 {
        fill: url(#New_Gradient_Swatch-49);
        stroke: url(#New_Gradient_Swatch-50);
      }

      .cls-13 {
        fill: url(#New_Gradient_Swatch-65);
        stroke: url(#New_Gradient_Swatch-66);
      }

      .cls-37 {
        fill: none;
      }

      .cls-14 {
        fill: url(#New_Gradient_Swatch-25);
        stroke: url(#New_Gradient_Swatch-26);
      }

      .cls-15 {
        fill: url(#New_Gradient_Swatch);
        stroke: url(#New_Gradient_Swatch-2);
      }

      .cls-16 {
        fill: url(#New_Gradient_Swatch-21);
        stroke: url(#New_Gradient_Swatch-22);
      }

      .cls-17 {
        fill: url(#New_Gradient_Swatch-9);
        stroke: url(#New_Gradient_Swatch-10);
      }

      .cls-18 {
        fill: url(#New_Gradient_Swatch-35);
        stroke: url(#New_Gradient_Swatch-36);
      }

      .cls-19 {
        fill: url(#New_Gradient_Swatch-61);
        stroke: url(#New_Gradient_Swatch-62);
      }

      .cls-20 {
        fill: url(#New_Gradient_Swatch-17);
        stroke: url(#New_Gradient_Swatch-18);
      }

      .cls-21 {
        fill: url(#New_Gradient_Swatch-27);
        stroke: url(#New_Gradient_Swatch-28);
      }

      .cls-22 {
        fill: url(#New_Gradient_Swatch-33);
        stroke: url(#New_Gradient_Swatch-34);
      }

      .cls-23 {
        fill: url(#New_Gradient_Swatch-41);
        stroke: url(#New_Gradient_Swatch-42);
      }

      .cls-24 {
        fill: url(#New_Gradient_Swatch-23);
        stroke: url(#New_Gradient_Swatch-24);
      }

      .cls-25 {
        fill: url(#New_Gradient_Swatch-47);
        stroke: url(#New_Gradient_Swatch-48);
      }

      .cls-26 {
        fill: url(#New_Gradient_Swatch-51);
        stroke: url(#New_Gradient_Swatch-52);
      }

      .cls-27 {
        fill: url(#New_Gradient_Swatch-69);
        stroke: url(#New_Gradient_Swatch-70);
      }

      .cls-28 {
        fill: url(#New_Gradient_Swatch-67);
        stroke: url(#New_Gradient_Swatch-68);
      }

      .cls-29 {
        fill: url(#New_Gradient_Swatch-59);
        stroke: url(#New_Gradient_Swatch-60);
      }

      .cls-30 {
        fill: url(#New_Gradient_Swatch-7);
        stroke: url(#New_Gradient_Swatch-8);
      }

      .cls-31 {
        fill: url(#New_Gradient_Swatch-63);
        stroke: url(#New_Gradient_Swatch-64);
      }

      .cls-32 {
        fill: url(#New_Gradient_Swatch-15);
        stroke: url(#New_Gradient_Swatch-16);
      }

      .cls-33 {
        fill: url(#New_Gradient_Swatch-55);
        stroke: url(#New_Gradient_Swatch-56);
      }

      .cls-34 {
        fill: url(#New_Gradient_Swatch-31);
        stroke: url(#New_Gradient_Swatch-32);
      }

      .cls-38 {
        clip-path: url(#clippath);
      }

      .cls-35 {
        fill: url(#New_Gradient_Swatch-11);
        stroke: url(#New_Gradient_Swatch-12);
      }

      .cls-36 {
        fill: url(#New_Gradient_Swatch-43);
        stroke: url(#New_Gradient_Swatch-44);
      }
    </style>
    <clipPath id="clippath">
      <rect class="cls-37" x="0" width="596.78" height="842.44"/>
    </clipPath>
    <linearGradient id="New_Gradient_Swatch" data-name="New Gradient Swatch" x1="-107.88" y1="-13.58" x2="60.67" y2="-13.58" gradientUnits="userSpaceOnUse">
      <stop offset="0" stop-color="#ed1c24"/>
      <stop offset="1" stop-color="#2e3192"/>
    </linearGradient>
    <linearGradient id="New_Gradient_Swatch-2" data-name="New Gradient Swatch" x1="-108.38" x2="61.17" xlink:href="#New_Gradient_Swatch"/>
    <linearGradient id="New_Gradient_Swatch-3" data-name="New Gradient Swatch" x1="106.62" x2="275.16" xlink:href="#New_Gradient_Swatch"/>
    <linearGradient id="New_Gradient_Swatch-4" data-name="New Gradient Swatch" x1="106.12" x2="275.66" xlink:href="#New_Gradient_Swatch"/>
    <linearGradient id="New_Gradient_Swatch-5" data-name="New Gradient Swatch" x1="321.11" x2="489.65" xlink:href="#New_Gradient_Swatch"/>
    <linearGradient id="New_Gradient_Swatch-6" data-name="New Gradient Swatch" x1="320.61" x2="490.15" xlink:href="#New_Gradient_Swatch"/>
    <linearGradient id="New_Gradient_Swatch-7" data-name="New Gradient Swatch" x1="535.6" x2="704.15" xlink:href="#New_Gradient_Swatch"/>
    <linearGradient id="New_Gradient_Swatch-8" data-name="New Gradient Swatch" x1="535.1" x2="704.65" xlink:href="#New_Gradient_Swatch"/>
    <linearGradient id="New_Gradient_Swatch-9" data-name="New Gradient Swatch" y1="186.11" y2="186.11" xlink:href="#New_Gradient_Swatch"/>
    <linearGradient id="New_Gradient_Swatch-10" data-name="New Gradient Swatch" x1="-108.38" y1="186.11" x2="61.17" y2="186.11" xlink:href="#New_Gradient_Swatch"/>
    <linearGradient id="New_Gradient_Swatch-11" data-name="New Gradient Swatch" x1=".5" y1="83.46" x2="166.43" y2="83.46" xlink:href="#New_Gradient_Swatch"/>
    <linearGradient id="New_Gradient_Swatch-12" data-name="New Gradient Swatch" x1="0" y1="83.46" x2="166.93" y2="83.46" xlink:href="#New_Gradient_Swatch"/>
    <linearGradient id="New_Gradient_Swatch-13" data-name="New Gradient Swatch" x1="106.62" y1="186.11" x2="275.16" y2="186.11" xlink:href="#New_Gradient_Swatch"/>
    <linearGradient id="New_Gradient_Swatch-14" data-name="New Gradient Swatch" x1="106.12" y1="186.11" x2="275.66" y2="186.11" xlink:href="#New_Gradient_Swatch"/>
    <linearGradient id="New_Gradient_Swatch-15" data-name="New Gradient Swatch" x1="214.99" y1="83.46" x2="380.92" y2="83.46" xlink:href="#New_Gradient_Swatch"/>
    <linearGradient id="New_Gradient_Swatch-16" data-name="New Gradient Swatch" x1="214.49" y1="83.46" x2="381.42" y2="83.46" xlink:href="#New_Gradient_Swatch"/>
    <linearGradient id="New_Gradient_Swatch-17" data-name="New Gradient Swatch" x1="321.11" y1="186.11" x2="489.65" y2="186.11" xlink:href="#New_Gradient_Swatch"/>
    <linearGradient id="New_Gradient_Swatch-18" data-name="New Gradient Swatch" x1="320.61" y1="186.11" x2="490.15" y2="186.11" xlink:href="#New_Gradient_Swatch"/>
    <linearGradient id="New_Gradient_Swatch-19" data-name="New Gradient Swatch" x1="429.49" y1="83.46" x2="595.42" y2="83.46" xlink:href="#New_Gradient_Swatch"/>
    <linearGradient id="New_Gradient_Swatch-20" data-name="New Gradient Swatch" x1="428.99" y1="83.46" x2="595.92" y2="83.46" xlink:href="#New_Gradient_Swatch"/>
    <linearGradient id="New_Gradient_Swatch-21" data-name="New Gradient Swatch" x1="535.6" y1="186.11" x2="704.15" y2="186.11" xlink:href="#New_Gradient_Swatch"/>
    <linearGradient id="New_Gradient_Swatch-22" data-name="New Gradient Swatch" x1="535.1" y1="186.11" x2="704.65" y2="186.11" xlink:href="#New_Gradient_Swatch"/>
    <linearGradient id="New_Gradient_Swatch-23" data-name="New Gradient Swatch" y1="385.8" y2="385.8" xlink:href="#New_Gradient_Swatch"/>
    <linearGradient id="New_Gradient_Swatch-24" data-name="New Gradient Swatch" x1="-108.38" y1="385.8" x2="61.17" y2="385.8" xlink:href="#New_Gradient_Swatch"/>
    <linearGradient id="New_Gradient_Swatch-25" data-name="New Gradient Swatch" x1=".5" y1="283.15" x2="166.43" y2="283.15" xlink:href="#New_Gradient_Swatch"/>
    <linearGradient id="New_Gradient_Swatch-26" data-name="New Gradient Swatch" x1="0" y1="283.15" x2="166.93" y2="283.15" xlink:href="#New_Gradient_Swatch"/>
    <linearGradient id="New_Gradient_Swatch-27" data-name="New Gradient Swatch" x1="106.62" y1="385.8" x2="275.16" y2="385.8" xlink:href="#New_Gradient_Swatch"/>
    <linearGradient id="New_Gradient_Swatch-28" data-name="New Gradient Swatch" x1="106.12" y1="385.8" x2="275.66" y2="385.8" xlink:href="#New_Gradient_Swatch"/>
    <linearGradient id="New_Gradient_Swatch-29" data-name="New Gradient Swatch" x1="214.99" y1="283.15" x2="380.92" y2="283.15" xlink:href="#New_Gradient_Swatch"/>
    <linearGradient id="New_Gradient_Swatch-30" data-name="New Gradient Swatch" x1="214.49" y1="283.15" x2="381.42" y2="283.15" xlink:href="#New_Gradient_Swatch"/>
    <linearGradient id="New_Gradient_Swatch-31" data-name="New Gradient Swatch" x1="321.11" y1="385.8" x2="489.65" y2="385.8" xlink:href="#New_Gradient_Swatch"/>
    <linearGradient id="New_Gradient_Swatch-32" data-name="New Gradient Swatch" x1="320.61" y1="385.8" x2="490.15" y2="385.8" xlink:href="#New_Gradient_Swatch"/>
    <linearGradient id="New_Gradient_Swatch-33" data-name="New Gradient Swatch" x1="429.49" y1="283.15" x2="595.42" y2="283.15" xlink:href="#New_Gradient_Swatch"/>
    <linearGradient id="New_Gradient_Swatch-34" data-name="New Gradient Swatch" x1="428.99" y1="283.15" x2="595.92" y2="283.15" xlink:href="#New_Gradient_Swatch"/>
    <linearGradient id="New_Gradient_Swatch-35" data-name="New Gradient Swatch" x1="535.6" y1="385.8" x2="704.15" y2="385.8" xlink:href="#New_Gradient_Swatch"/>
    <linearGradient id="New_Gradient_Swatch-36" data-name="New Gradient Swatch" x1="535.1" y1="385.8" x2="704.65" y2="385.8" xlink:href="#New_Gradient_Swatch"/>
    <linearGradient id="New_Gradient_Swatch-37" data-name="New Gradient Swatch" y1="585.49" y2="585.49" xlink:href="#New_Gradient_Swatch"/>
    <linearGradient id="New_Gradient_Swatch-38" data-name="New Gradient Swatch" x1="-108.38" y1="585.49" x2="61.17" y2="585.49" xlink:href="#New_Gradient_Swatch"/>
    <linearGradient id="New_Gradient_Swatch-39" data-name="New Gradient Swatch" x1=".5" y1="482.84" x2="166.43" y2="482.84" xlink:href="#New_Gradient_Swatch"/>
    <linearGradient id="New_Gradient_Swatch-40" data-name="New Gradient Swatch" x1="0" y1="482.84" x2="166.93" y2="482.84" xlink:href="#New_Gradient_Swatch"/>
    <linearGradient id="New_Gradient_Swatch-41" data-name="New Gradient Swatch" x1="106.62" y1="585.49" x2="275.16" y2="585.49" xlink:href="#New_Gradient_Swatch"/>
    <linearGradient id="New_Gradient_Swatch-42" data-name="New Gradient Swatch" x1="106.12" y1="585.49" x2="275.66" y2="585.49" xlink:href="#New_Gradient_Swatch"/>
    <linearGradient id="New_Gradient_Swatch-43" data-name="New Gradient Swatch" x1="214.99" y1="482.84" x2="380.92" y2="482.84" xlink:href="#New_Gradient_Swatch"/>
    <linearGradient id="New_Gradient_Swatch-44" data-name="New Gradient Swatch" x1="214.49" y1="482.84" x2="381.42" y2="482.84" xlink:href="#New_Gradient_Swatch"/>
    <linearGradient id="New_Gradient_Swatch-45" data-name="New Gradient Swatch" x1="321.11" y1="585.49" x2="489.65" y2="585.49" xlink:href="#New_Gradient_Swatch"/>
    <linearGradient id="New_Gradient_Swatch-46" data-name="New Gradient Swatch" x1="320.61" y1="585.49" x2="490.15" y2="585.49" xlink:href="#New_Gradient_Swatch"/>
    <linearGradient id="New_Gradient_Swatch-47" data-name="New Gradient Swatch" x1="429.49" y1="482.84" x2="595.42" y2="482.84" xlink:href="#New_Gradient_Swatch"/>
    <linearGradient id="New_Gradient_Swatch-48" data-name="New Gradient Swatch" x1="428.99" y1="482.84" x2="595.92" y2="482.84" xlink:href="#New_Gradient_Swatch"/>
    <linearGradient id="New_Gradient_Swatch-49" data-name="New Gradient Swatch" x1="535.6" y1="585.49" x2="704.15" y2="585.49" xlink:href="#New_Gradient_Swatch"/>
    <linearGradient id="New_Gradient_Swatch-50" data-name="New Gradient Swatch" x1="535.1" y1="585.49" x2="704.65" y2="585.49" xlink:href="#New_Gradient_Swatch"/>
    <linearGradient id="New_Gradient_Swatch-51" data-name="New Gradient Swatch" y1="785.18" y2="785.18" xlink:href="#New_Gradient_Swatch"/>
    <linearGradient id="New_Gradient_Swatch-52" data-name="New Gradient Swatch" x1="-108.38" y1="785.18" x2="61.17" y2="785.18" xlink:href="#New_Gradient_Swatch"/>
    <linearGradient id="New_Gradient_Swatch-53" data-name="New Gradient Swatch" x1=".5" y1="682.53" x2="166.43" y2="682.53" xlink:href="#New_Gradient_Swatch"/>
    <linearGradient id="New_Gradient_Swatch-54" data-name="New Gradient Swatch" x1="0" y1="682.53" x2="166.93" y2="682.53" xlink:href="#New_Gradient_Swatch"/>
    <linearGradient id="New_Gradient_Swatch-55" data-name="New Gradient Swatch" x1="106.62" y1="785.18" x2="275.16" y2="785.18" xlink:href="#New_Gradient_Swatch"/>
    <linearGradient id="New_Gradient_Swatch-56" data-name="New Gradient Swatch" x1="106.12" y1="785.18" x2="275.66" y2="785.18" xlink:href="#New_Gradient_Swatch"/>
    <linearGradient id="New_Gradient_Swatch-57" data-name="New Gradient Swatch" x1="214.99" y1="682.53" x2="380.92" y2="682.53" xlink:href="#New_Gradient_Swatch"/>
    <linearGradient id="New_Gradient_Swatch-58" data-name="New Gradient Swatch" x1="214.49" y1="682.53" x2="381.42" y2="682.53" xlink:href="#New_Gradient_Swatch"/>
    <linearGradient id="New_Gradient_Swatch-59" data-name="New Gradient Swatch" x1="321.11" y1="785.18" x2="489.65" y2="785.18" xlink:href="#New_Gradient_Swatch"/>
    <linearGradient id="New_Gradient_Swatch-60" data-name="New Gradient Swatch" x1="320.61" y1="785.18" x2="490.15" y2="785.18" xlink:href="#New_Gradient_Swatch"/>
    <linearGradient id="New_Gradient_Swatch-61" data-name="New Gradient Swatch" x1="429.49" y1="682.53" x2="595.42" y2="682.53" xlink:href="#New_Gradient_Swatch"/>
    <linearGradient id="New_Gradient_Swatch-62" data-name="New Gradient Swatch" x1="428.99" y1="682.53" x2="595.92" y2="682.53" xlink:href="#New_Gradient_Swatch"/>
    <linearGradient id="New_Gradient_Swatch-63" data-name="New Gradient Swatch" x1="535.6" y1="785.18" x2="704.15" y2="785.18" xlink:href="#New_Gradient_Swatch"/>
    <linearGradient id="New_Gradient_Swatch-64" data-name="New Gradient Swatch" x1="535.1" y1="785.18" x2="704.65" y2="785.18" xlink:href="#New_Gradient_Swatch"/>
    <linearGradient id="New_Gradient_Swatch-65" data-name="New Gradient Swatch" x1=".5" y1="882.22" x2="166.43" y2="882.22" xlink:href="#New_Gradient_Swatch"/>
    <linearGradient id="New_Gradient_Swatch-66" data-name="New Gradient Swatch" x1="0" y1="882.22" x2="166.93" y2="882.22" xlink:href="#New_Gradient_Swatch"/>
    <linearGradient id="New_Gradient_Swatch-67" data-name="New Gradient Swatch" x1="214.99" y1="882.22" x2="380.92" y2="882.22" xlink:href="#New_Gradient_Swatch"/>
    <linearGradient id="New_Gradient_Swatch-68" data-name="New Gradient Swatch" x1="214.49" y1="882.22" x2="381.42" y2="882.22" xlink:href="#New_Gradient_Swatch"/>
    <linearGradient id="New_Gradient_Swatch-69" data-name="New Gradient Swatch" x1="429.49" y1="882.22" x2="595.42" y2="882.22" xlink:href="#New_Gradient_Swatch"/>
    <linearGradient id="New_Gradient_Swatch-70" data-name="New Gradient Swatch" x1="428.99" y1="882.22" x2="595.92" y2="882.22" xlink:href="#New_Gradient_Swatch"/>
  </defs>
  <g id="Background">
    <rect class="cls-1" width="595.28" height="841.89"/>
  </g>
  <g id="Layer_1" data-name="Layer 1">
    <g class="cls-38">
      <g>
        <path class="cls-15" d="M20.52,68.01c-22.9.74-42.06-17.23-42.79-40.13-.74-22.9-19.89-40.86-42.79-40.13-22.9.74-42.06-17.24-42.79-40.14s17.23-42.06,40.13-42.79,42.06,17.23,42.79,40.13C-24.2-32.15-5.04-14.17,17.85-14.91c22.9-.74,42.06,17.23,42.79,40.13s-17.23,42.06-40.13,42.79Z"/>
        <path class="cls-5" d="M235.01,68.01c-22.9.74-42.06-17.23-42.79-40.13-.74-22.9-19.89-40.86-42.79-40.13-22.9.74-42.06-17.24-42.79-40.14s17.23-42.06,40.13-42.79,42.06,17.23,42.79,40.13c.74,22.9,19.89,40.87,42.79,40.14,22.9-.74,42.06,17.23,42.79,40.13s-17.23,42.06-40.13,42.79Z"/>
        <path class="cls-8" d="M449.51,68.01c-22.9.74-42.06-17.23-42.79-40.13s-19.89-40.86-42.79-40.13c-22.9.74-42.06-17.24-42.79-40.14s17.23-42.06,40.13-42.79,42.06,17.23,42.79,40.13c.74,22.9,19.89,40.87,42.79,40.14,22.9-.74,42.06,17.23,42.79,40.13s-17.23,42.06-40.13,42.79Z"/>
        <path class="cls-30" d="M664,68.01c-22.9.74-42.06-17.23-42.79-40.13s-19.89-40.86-42.79-40.13c-22.9.74-42.06-17.24-42.79-40.14s17.23-42.06,40.13-42.79,42.06,17.23,42.79,40.13c.74,22.9,19.89,40.87,42.79,40.14,22.9-.74,42.06,17.23,42.79,40.13s-17.23,42.06-40.13,42.79Z"/>
        <path class="cls-17" d="M20.52,267.7c-22.9.74-42.06-17.23-42.79-40.13-.74-22.9-19.89-40.86-42.79-40.13-22.9.74-42.06-17.24-42.79-40.14s17.23-42.06,40.13-42.79,42.06,17.23,42.79,40.13c.74,22.9,19.89,40.87,42.79,40.14,22.9-.74,42.06,17.23,42.79,40.13s-17.23,42.06-40.13,42.79Z"/>
        <g>
          <path class="cls-35" d="M166.43,41.98c0,22.91-18.57,41.48-41.48,41.48s-41.48,18.57-41.48,41.48-18.58,41.48-41.49,41.48S.5,147.85.5,124.94s18.57-41.48,41.48-41.48,41.49-18.57,41.49-41.48S102.04.5,124.95.5s41.48,18.57,41.48,41.48Z"/>
          <path class="cls-7" d="M235.01,267.7c-22.9.74-42.06-17.23-42.79-40.13-.74-22.9-19.89-40.86-42.79-40.13-22.9.74-42.06-17.24-42.79-40.14s17.23-42.06,40.13-42.79,42.06,17.23,42.79,40.13c.74,22.9,19.89,40.87,42.79,40.14,22.9-.74,42.06,17.23,42.79,40.13s-17.23,42.06-40.13,42.79Z"/>
        </g>
        <g>
          <path class="cls-32" d="M380.92,41.98c0,22.91-18.57,41.48-41.48,41.48s-41.48,18.57-41.48,41.48-18.58,41.48-41.49,41.48-41.48-18.57-41.48-41.48,18.57-41.48,41.48-41.48,41.49-18.57,41.49-41.48S316.53.5,339.44.5s41.48,18.57,41.48,41.48Z"/>
          <path class="cls-20" d="M449.51,267.7c-22.9.74-42.06-17.23-42.79-40.13s-19.89-40.86-42.79-40.13c-22.9.74-42.06-17.24-42.79-40.14s17.23-42.06,40.13-42.79,42.06,17.23,42.79,40.13c.74,22.9,19.89,40.87,42.79,40.14,22.9-.74,42.06,17.23,42.79,40.13s-17.23,42.06-40.13,42.79Z"/>
        </g>
        <g>
          <path class="cls-4" d="M595.42,41.98c0,22.91-18.57,41.48-41.48,41.48s-41.48,18.57-41.48,41.48-18.58,41.48-41.49,41.48-41.48-18.57-41.48-41.48,18.57-41.48,41.48-41.48,41.49-18.57,41.49-41.48S531.03.5,553.94.5s41.48,18.57,41.48,41.48Z"/>
          <path class="cls-16" d="M664,267.7c-22.9.74-42.06-17.23-42.79-40.13s-19.89-40.86-42.79-40.13c-22.9.74-42.06-17.24-42.79-40.14s17.23-42.06,40.13-42.79,42.06,17.23,42.79,40.13c.74,22.9,19.89,40.87,42.79,40.14,22.9-.74,42.06,17.23,42.79,40.13s-17.23,42.06-40.13,42.79Z"/>
        </g>
        <path class="cls-24" d="M20.52,467.39c-22.9.74-42.06-17.23-42.79-40.13-.74-22.9-19.89-40.86-42.79-40.13-22.9.74-42.06-17.24-42.79-40.14s17.23-42.06,40.13-42.79,42.06,17.23,42.79,40.13c.74,22.9,19.89,40.87,42.79,40.14,22.9-.74,42.06,17.23,42.79,40.13s-17.23,42.06-40.13,42.79Z"/>
        <g>
          <path class="cls-14" d="M166.43,241.67c0,22.91-18.57,41.48-41.48,41.48s-41.48,18.57-41.48,41.48-18.58,41.48-41.49,41.48S.5,347.54.5,324.63s18.57-41.48,41.48-41.48,41.49-18.57,41.49-41.48,18.57-41.48,41.48-41.48,41.48,18.57,41.48,41.48Z"/>
          <path class="cls-21" d="M235.01,467.39c-22.9.74-42.06-17.23-42.79-40.13-.74-22.9-19.89-40.86-42.79-40.13-22.9.74-42.06-17.24-42.79-40.14s17.23-42.06,40.13-42.79,42.06,17.23,42.79,40.13c.74,22.9,19.89,40.87,42.79,40.14,22.9-.74,42.06,17.23,42.79,40.13s-17.23,42.06-40.13,42.79Z"/>
        </g>
        <g>
          <path class="cls-9" d="M380.92,241.67c0,22.91-18.57,41.48-41.48,41.48s-41.48,18.57-41.48,41.48-18.58,41.48-41.49,41.48-41.48-18.57-41.48-41.48,18.57-41.48,41.48-41.48,41.49-18.57,41.49-41.48,18.57-41.48,41.48-41.48,41.48,18.57,41.48,41.48Z"/>
          <path class="cls-34" d="M449.51,467.39c-22.9.74-42.06-17.23-42.79-40.13s-19.89-40.86-42.79-40.13c-22.9.74-42.06-17.24-42.79-40.14s17.23-42.06,40.13-42.79,42.06,17.23,42.79,40.13c.74,22.9,19.89,40.87,42.79,40.14,22.9-.74,42.06,17.23,42.79,40.13s-17.23,42.06-40.13,42.79Z"/>
        </g>
        <g>
          <path class="cls-22" d="M595.42,241.67c0,22.91-18.57,41.48-41.48,41.48s-41.48,18.57-41.48,41.48-18.58,41.48-41.49,41.48-41.48-18.57-41.48-41.48,18.57-41.48,41.48-41.48,41.49-18.57,41.49-41.48,18.57-41.48,41.48-41.48,41.48,18.57,41.48,41.48Z"/>
          <path class="cls-18" d="M664,467.39c-22.9.74-42.06-17.23-42.79-40.13s-19.89-40.86-42.79-40.13c-22.9.74-42.06-17.24-42.79-40.14s17.23-42.06,40.13-42.79,42.06,17.23,42.79,40.13c.74,22.9,19.89,40.87,42.79,40.14,22.9-.74,42.06,17.23,42.79,40.13s-17.23,42.06-40.13,42.79Z"/>
        </g>
        <path class="cls-2" d="M20.52,667.08c-22.9.74-42.06-17.23-42.79-40.13-.74-22.9-19.89-40.86-42.79-40.13-22.9.74-42.06-17.24-42.79-40.14s17.23-42.06,40.13-42.79c22.9-.74,42.06,17.23,42.79,40.13.74,22.9,19.89,40.87,42.79,40.14,22.9-.74,42.06,17.23,42.79,40.13s-17.23,42.06-40.13,42.79Z"/>
        <g>
          <path class="cls-3" d="M166.43,441.36c0,22.91-18.57,41.48-41.48,41.48s-41.48,18.57-41.48,41.48-18.58,41.48-41.49,41.48S.5,547.23.5,524.32s18.57-41.48,41.48-41.48,41.49-18.57,41.49-41.48,18.57-41.48,41.48-41.48,41.48,18.57,41.48,41.48Z"/>
          <path class="cls-23" d="M235.01,667.08c-22.9.74-42.06-17.23-42.79-40.13-.74-22.9-19.89-40.86-42.79-40.13-22.9.74-42.06-17.24-42.79-40.14s17.23-42.06,40.13-42.79c22.9-.74,42.06,17.23,42.79,40.13.74,22.9,19.89,40.87,42.79,40.14,22.9-.74,42.06,17.23,42.79,40.13s-17.23,42.06-40.13,42.79Z"/>
        </g>
        <g>
          <path class="cls-36" d="M380.92,441.36c0,22.91-18.57,41.48-41.48,41.48s-41.48,18.57-41.48,41.48-18.58,41.48-41.49,41.48-41.48-18.57-41.48-41.48,18.57-41.48,41.48-41.48,41.49-18.57,41.49-41.48,18.57-41.48,41.48-41.48,41.48,18.57,41.48,41.48Z"/>
          <path class="cls-10" d="M449.51,667.08c-22.9.74-42.06-17.23-42.79-40.13s-19.89-40.86-42.79-40.13c-22.9.74-42.06-17.24-42.79-40.14s17.23-42.06,40.13-42.79c22.9-.74,42.06,17.23,42.79,40.13.74,22.9,19.89,40.87,42.79,40.14,22.9-.74,42.06,17.23,42.79,40.13s-17.23,42.06-40.13,42.79Z"/>
        </g>
        <g>
          <path class="cls-25" d="M595.42,441.36c0,22.91-18.57,41.48-41.48,41.48s-41.48,18.57-41.48,41.48-18.58,41.48-41.49,41.48-41.48-18.57-41.48-41.48,18.57-41.48,41.48-41.48,41.49-18.57,41.49-41.48,18.57-41.48,41.48-41.48,41.48,18.57,41.48,41.48Z"/>
          <path class="cls-12" d="M664,667.08c-22.9.74-42.06-17.23-42.79-40.13s-19.89-40.86-42.79-40.13c-22.9.74-42.06-17.24-42.79-40.14s17.23-42.06,40.13-42.79c22.9-.74,42.06,17.23,42.79,40.13.74,22.9,19.89,40.87,42.79,40.14,22.9-.74,42.06,17.23,42.79,40.13s-17.23,42.06-40.13,42.79Z"/>
        </g>
        <path class="cls-26" d="M20.52,866.77c-22.9.74-42.06-17.23-42.79-40.13-.74-22.9-19.89-40.86-42.79-40.13-22.9.74-42.06-17.24-42.79-40.14s17.23-42.06,40.13-42.79c22.9-.74,42.06,17.23,42.79,40.13.74,22.9,19.89,40.87,42.79,40.14,22.9-.74,42.06,17.23,42.79,40.13s-17.23,42.06-40.13,42.79Z"/>
        <g>
          <path class="cls-6" d="M166.43,641.05c0,22.91-18.57,41.48-41.48,41.48s-41.48,18.57-41.48,41.48-18.58,41.48-41.49,41.48S.5,746.92.5,724.01s18.57-41.48,41.48-41.48,41.49-18.57,41.49-41.48,18.57-41.48,41.48-41.48,41.48,18.57,41.48,41.48Z"/>
          <path class="cls-33" d="M235.01,866.77c-22.9.74-42.06-17.23-42.79-40.13-.74-22.9-19.89-40.86-42.79-40.13-22.9.74-42.06-17.24-42.79-40.14s17.23-42.06,40.13-42.79c22.9-.74,42.06,17.23,42.79,40.13.74,22.9,19.89,40.87,42.79,40.14,22.9-.74,42.06,17.23,42.79,40.13s-17.23,42.06-40.13,42.79Z"/>
        </g>
        <g>
          <path class="cls-11" d="M380.92,641.05c0,22.91-18.57,41.48-41.48,41.48s-41.48,18.57-41.48,41.48-18.58,41.48-41.49,41.48-41.48-18.57-41.48-41.48,18.57-41.48,41.48-41.48,41.49-18.57,41.49-41.48,18.57-41.48,41.48-41.48,41.48,18.57,41.48,41.48Z"/>
          <path class="cls-29" d="M449.51,866.77c-22.9.74-42.06-17.23-42.79-40.13s-19.89-40.86-42.79-40.13c-22.9.74-42.06-17.24-42.79-40.14s17.23-42.06,40.13-42.79c22.9-.74,42.06,17.23,42.79,40.13.74,22.9,19.89,40.87,42.79,40.14,22.9-.74,42.06,17.23,42.79,40.13s-17.23,42.06-40.13,42.79Z"/>
        </g>
        <g>
          <path class="cls-19" d="M595.42,641.05c0,22.91-18.57,41.48-41.48,41.48s-41.48,18.57-41.48,41.48-18.58,41.48-41.49,41.48-41.48-18.57-41.48-41.48,18.57-41.48,41.48-41.48,41.49-18.57,41.49-41.48,18.57-41.48,41.48-41.48,41.48,18.57,41.48,41.48Z"/>
          <path class="cls-31" d="M664,866.77c-22.9.74-42.06-17.23-42.79-40.13s-19.89-40.86-42.79-40.13c-22.9.74-42.06-17.24-42.79-40.14s17.23-42.06,40.13-42.79c22.9-.74,42.06,17.23,42.79,40.13.74,22.9,19.89,40.87,42.79,40.14,22.9-.74,42.06,17.23,42.79,40.13s-17.23,42.06-40.13,42.79Z"/>
        </g>
        <path class="cls-13" d="M166.43,840.74c0,22.91-18.57,41.48-41.48,41.48s-41.48,18.57-41.48,41.48-18.58,41.48-41.49,41.48S.5,946.61.5,923.7s18.57-41.48,41.48-41.48,41.49-18.57,41.49-41.48,18.57-41.48,41.48-41.48,41.48,18.57,41.48,41.48Z"/>
        <path class="cls-28" d="M380.92,840.74c0,22.91-18.57,41.48-41.48,41.48s-41.48,18.57-41.48,41.48-18.58,41.48-41.49,41.48-41.48-18.57-41.48-41.48,18.57-41.48,41.48-41.48,41.49-18.57,41.49-41.48,18.57-41.48,41.48-41.48,41.48,18.57,41.48,41.48Z"/>
        <path class="cls-27" d="M595.42,840.74c0,22.91-18.57,41.48-41.48,41.48s-41.48,18.57-41.48,41.48-18.58,41.48-41.49,41.48-41.48-18.57-41.48-41.48,18.57-41.48,41.48-41.48,41.49-18.57,41.49-41.48,18.57-41.48,41.48-41.48,41.48,18.57,41.48,41.48Z"/>
      </g>
    </g>
  </g>
</svg>